<svg width="25" height="25" viewBox="0 0 25 25" fill="none" xmlns="http://www.w3.org/2000/svg">
<path d="M11.6789 2.77611C9.56872 0.850959 6.84165 -0.130029 4 0.01385L4.0712 1.44468C6.53392 1.31999 8.89741 2.17018 10.7263 3.83866C12.5551 5.50713 13.6303 7.79413 13.754 10.2784L15.1724 10.2066C15.0298 7.34009 13.7891 4.70126 11.6789 2.77611Z" fill="black"/>
<path d="M4.14239 2.87552L4.21359 4.30636C5.91859 4.22003 7.55484 4.80863 8.82094 5.9637C10.087 7.11877 10.8315 8.7021 10.917 10.422L12.3355 10.3502C12.2309 8.24807 11.3211 6.31293 9.77359 4.90116C8.22612 3.48938 6.22626 2.77004 4.14239 2.87552Z" fill="black"/>
<path d="M4.28479 5.73724L4.35599 7.16807C6.31132 7.0691 7.98198 8.59326 8.08015 10.5657L9.49859 10.4938C9.36119 7.73244 7.02228 5.59863 4.28479 5.73724Z" fill="black"/>
<path d="M17.2661 22.1793C16.5256 22.7023 15.4287 22.9914 13.5674 22.9914C10.3594 22.9914 8.01155 21.8286 7.05425 19.5742C6.60166 18.5087 6.64522 17.3011 6.64522 15.6678H4.51327C4.51327 17.39 4.4839 18.7404 4.94065 19.9842C6.13836 23.247 9.2226 25 13.3659 25C17.3763 25 19.0382 23.8464 20.1216 22.1793H17.2661Z" fill="black"/>
<path d="M4.51289 8.61261C5.69235 8.61261 6.6485 9.57711 6.6485 10.7669V15.6678H4.51289V8.61261Z" fill="black"/>
<path d="M13.2601 21.2441C12.0358 21.2441 10.8571 20.9101 9.81592 20.183C9.09019 19.6765 8.2502 18.5325 8.2502 16.5933C8.2502 12.9955 10.072 11.6824 13.7332 11.6824H22L20.3246 13.7316H14.2356C11.8191 13.7316 10.3822 13.9217 10.3822 16.5933C10.3822 17.4757 10.6289 18.1037 11.1367 18.5129C11.9948 19.2046 13.6628 19.234 14.6819 19.1349C14.6819 19.1349 15.1001 17.7785 15.169 17.5583C15.2496 17.3003 15.2144 17.2387 14.9627 17.2387C14.5992 17.2387 13.9458 17.2387 13.2523 17.2387C12.7663 17.2387 12.2887 16.992 12.2887 16.3993C12.2887 15.8269 12.733 15.4947 13.342 15.4947C14.3964 15.4947 16.568 15.4947 16.9745 15.4947C17.5074 15.4947 18.0511 15.5718 17.7737 16.4227L16.3044 20.9176C16.3045 20.9177 15.1041 21.2441 13.2601 21.2441Z" fill="black"/>
</svg>
